<?xml version="1.0" encoding="UTF-8" standalone="no"?><!-- Generator: Gravit.io --><svg xmlns="http://www.w3.org/2000/svg" xmlns:xlink="http://www.w3.org/1999/xlink" style="isolation:isolate" viewBox="0 0 288 288" width="288pt" height="288pt"><defs><clipPath id="_clipPath_CXdYCko9TD7Z5V2pKrUcpe3ZTx01n8o1"><rect width="288" height="288"/></clipPath></defs><g clip-path="url(#_clipPath_CXdYCko9TD7Z5V2pKrUcpe3ZTx01n8o1)"><path d=" M 9.759 159.636 C 10.239 158.588 10.782 157.566 11.388 156.582 C 12.146 155.358 13.067 154.247 14.128 153.275 C 15.315 152.203 16.692 151.37 18.195 150.802 C 19.521 150.322 20.922 150.045 22.324 149.969 C 22.513 149.338 22.69 148.682 22.842 148.038 C 23.334 145.981 23.776 143.912 24.18 141.842 C 24.484 140.277 24.812 138.725 25.153 137.173 C 25.506 135.558 25.911 133.955 26.353 132.365 C 26.82 130.724 27.363 129.109 27.994 127.531 C 28.537 126.181 29.169 124.869 29.889 123.607 C 30.987 119.707 32.515 115.947 34.447 112.388 C 36.569 108.489 39.082 104.829 41.961 101.459 C 44.954 97.964 48.25 94.746 51.812 91.843 C 55.55 88.802 59.515 86.064 63.682 83.653 C 68.039 81.117 72.585 78.908 77.271 77.028 C 81.884 75.167 86.598 73.596 91.403 72.326 C 91.073 72.041 91.023 71.601 91.528 70.908 C 94.89 66.291 114.748 59.438 116.608 60.004 C 117.189 57.796 118.932 56.067 121.142 55.512 C 127.494 53.884 134.023 53.051 140.577 53.013 C 141.082 53 141.575 53.013 142.08 53.026 C 142.547 51.839 143.343 50.817 144.391 50.111 C 145.439 49.391 146.689 49 147.952 49 C 151.539 49 155.125 49.076 158.711 49.227 C 161.818 49.366 164.925 49.606 168.006 49.934 C 170.721 50.211 173.411 50.603 176.101 51.095 C 178.488 51.537 180.849 52.092 183.185 52.748 C 187.328 53.909 191.331 55.486 195.145 57.455 C 198.213 59.07 201.181 60.875 204.035 62.856 C 212.054 64.56 219.644 67.891 226.312 72.649 C 231.641 76.448 236.377 81.003 240.367 86.177 C 240.493 86.101 240.632 86.026 240.771 85.95 C 242.097 85.193 243.499 84.537 244.951 84.007 C 246.277 83.489 247.679 83.199 249.106 83.149 C 251.202 83.035 253.261 83.729 254.852 85.079 C 256.569 86.606 257.504 88.827 257.416 91.124 C 257.365 92.55 256.999 93.938 256.342 95.213 C 255.799 96.285 255.13 97.282 254.347 98.178 C 252.983 99.731 251.354 101.03 249.523 102.015 C 253.374 111.202 255.344 121.07 255.307 131.04 C 255.307 137.35 254.524 143.634 252.983 149.755 C 251.922 153.919 250.483 157.995 248.702 161.92 C 249.649 163.081 250.495 164.305 251.253 165.592 C 251.632 166.223 252.036 166.841 252.465 167.447 C 252.819 167.927 253.223 168.368 253.665 168.76 C 254.233 169.264 254.865 169.693 255.534 170.059 C 256.658 170.64 257.845 171.107 259.057 171.46 C 260.939 172.028 262.858 172.508 264.791 172.886 C 266.028 173.126 267.278 173.277 268.541 173.34 C 269.337 173.391 270.145 173.378 270.953 173.315 C 271.446 173.277 271.938 173.189 272.431 173.075 C 272.772 172.987 273.113 172.861 273.428 172.722 C 273.631 172.634 273.807 172.533 273.984 172.407 C 275.209 171.523 276.699 171.107 278.215 171.233 C 279.717 171.359 281.119 172.015 282.18 173.088 C 283.241 174.161 283.885 175.587 283.986 177.088 C 284.087 178.603 283.645 180.092 282.736 181.303 C 281.624 182.78 280.387 184.181 279.035 185.468 C 277.709 186.742 276.27 187.891 274.742 188.926 C 273.163 189.986 271.496 190.919 269.766 191.715 C 267.922 192.547 266.016 193.241 264.058 193.797 C 262.72 194.163 261.356 194.415 259.967 194.567 C 258.552 194.731 257.125 194.806 255.698 194.794 C 253.577 194.781 251.455 194.642 249.346 194.39 C 248.045 195.185 246.694 195.917 245.305 196.56 C 242.969 197.658 240.544 198.554 238.056 199.248 C 236.478 199.677 234.861 199.993 233.232 200.157 C 231.54 200.346 229.822 200.435 228.118 200.435 C 224.708 200.422 221.286 200.132 217.914 199.577 C 215.098 199.122 212.307 198.516 209.566 197.747 C 209.213 197.86 208.859 197.961 208.506 198.075 C 208.329 198.744 208.139 199.425 207.937 200.107 C 207.293 202.328 206.7 204.574 206.157 206.82 C 205.614 209.117 205.184 211.439 204.856 213.774 C 204.944 214.632 204.982 215.49 204.97 216.348 C 204.957 217.572 204.906 218.796 204.818 220.008 C 205.033 222.367 205.146 224.74 205.159 227.1 C 205.184 229.27 205.045 231.453 204.73 233.599 C 204.515 235.101 203.757 236.476 202.608 237.46 C 201.459 238.457 199.994 239 198.479 239 L 196.079 239 L 185.85 239 L 179.536 239 C 178.349 239 177.187 238.672 176.177 238.028 C 175.267 238.52 174.244 238.773 173.222 238.773 L 170.822 238.773 L 160.593 238.773 L 154.279 238.773 C 152.599 238.773 150.983 238.091 149.796 236.905 C 148.621 235.719 147.952 234.104 147.965 232.413 C 147.977 230.507 148.028 228.601 148.116 226.696 C 148.179 225.409 148.217 224.122 148.23 222.834 C 148.242 222.191 148.205 221.547 148.129 220.916 C 148.04 220.601 147.977 220.273 147.927 219.944 C 147.876 219.629 147.851 219.301 147.826 218.973 C 147.788 218.317 147.763 217.673 147.763 217.017 C 147.763 216.159 147.788 215.3 147.838 214.43 C 147.851 214.139 147.876 213.837 147.902 213.534 C 147.902 213.508 147.902 213.471 147.902 213.445 C 147.611 211.186 147.194 208.953 146.677 206.732 C 146.55 206.227 146.424 205.722 146.285 205.217 C 139.529 206.252 132.697 206.757 125.865 206.744 C 125.246 206.744 124.64 206.744 124.034 206.732 C 123.958 207.073 123.882 207.401 123.806 207.741 C 123.39 209.66 123.036 211.59 122.758 213.534 C 122.859 214.392 122.897 215.25 122.885 216.108 C 122.872 217.332 122.821 218.556 122.733 219.78 C 122.948 222.128 123.061 224.5 123.074 226.86 C 123.099 229.043 122.96 231.214 122.645 233.359 C 122.43 234.861 121.672 236.236 120.523 237.233 C 119.374 238.218 117.909 238.773 116.393 238.773 L 113.994 238.773 L 103.765 238.773 L 97.451 238.773 C 96.264 238.773 95.102 238.432 94.092 237.801 C 93.182 238.281 92.159 238.533 91.137 238.533 L 88.737 238.533 L 78.508 238.533 L 72.194 238.533 C 70.514 238.533 68.898 237.864 67.711 236.665 C 66.536 235.479 65.867 233.864 65.88 232.185 C 65.892 230.28 65.943 228.362 66.031 226.456 C 66.094 225.182 66.132 223.894 66.145 222.595 C 66.157 221.964 66.12 221.32 66.044 220.676 C 65.955 220.361 65.892 220.033 65.842 219.717 C 65.791 219.389 65.766 219.061 65.741 218.733 C 65.703 218.089 65.678 217.433 65.678 216.777 C 65.678 215.919 65.703 215.061 65.753 214.203 C 65.766 213.9 65.791 213.597 65.816 213.307 C 65.816 213.269 65.816 213.243 65.816 213.206 C 65.488 210.606 64.983 208.044 64.339 205.508 C 63.708 203.059 62.899 200.662 61.914 198.34 C 60.955 196.043 59.843 193.822 58.606 191.664 C 57.28 189.342 55.853 187.058 54.362 184.837 C 51.104 182.376 48.048 179.688 45.207 176.773 C 41.873 173.366 38.918 169.618 36.38 165.592 C 35.647 164.431 34.953 163.245 34.308 162.021 C 34.182 162.513 34.043 162.98 33.866 163.447 C 33.336 164.81 32.616 166.084 31.707 167.22 C 30.192 169.1 28.348 170.678 26.264 171.877 C 24.648 172.823 22.943 173.618 21.175 174.224 C 20.518 174.451 19.849 174.653 19.167 174.817 C 18.573 174.981 17.955 175.095 17.323 175.158 C 16.894 175.221 16.452 175.296 16.022 175.397 C 15.77 175.461 15.517 175.536 15.265 175.637 C 15.101 175.7 14.936 175.776 14.785 175.877 C 13.838 176.811 12.613 177.442 11.299 177.644 C 9.973 177.846 8.622 177.631 7.435 177.025 C 6.248 176.42 5.276 175.448 4.682 174.249 C 4.076 173.063 3.861 171.713 4.089 170.387 C 4.329 168.861 4.859 167.371 5.629 166.021 C 6.223 164.961 6.892 163.939 7.65 162.992 C 8.142 162.336 8.673 161.705 9.216 161.099 C 9.355 160.595 9.531 160.103 9.759 159.636 Z " fill="rgb(0,0,0)"/><clipPath id="_clipPath_2FfwfXOpSKNzCYQknuMCaFY1yleLU1Mp"><path d=" M 9.759 159.636 C 10.239 158.588 10.782 157.566 11.388 156.582 C 12.146 155.358 13.067 154.247 14.128 153.275 C 15.315 152.203 16.692 151.37 18.195 150.802 C 19.521 150.322 20.922 150.045 22.324 149.969 C 22.513 149.338 22.69 148.682 22.842 148.038 C 23.334 145.981 23.776 143.912 24.18 141.842 C 24.484 140.277 24.812 138.725 25.153 137.173 C 25.506 135.558 25.911 133.955 26.353 132.365 C 26.82 130.724 27.363 129.109 27.994 127.531 C 28.537 126.181 29.169 124.869 29.889 123.607 C 30.987 119.707 32.515 115.947 34.447 112.388 C 36.569 108.489 39.082 104.829 41.961 101.459 C 44.954 97.964 48.25 94.746 51.812 91.843 C 55.55 88.802 59.515 86.064 63.682 83.653 C 68.039 81.117 72.585 78.908 77.271 77.028 C 81.884 75.167 86.598 73.596 91.403 72.326 C 91.073 72.041 91.023 71.601 91.528 70.908 C 94.89 66.291 114.748 59.438 116.608 60.004 C 117.189 57.796 118.932 56.067 121.142 55.512 C 127.494 53.884 134.023 53.051 140.577 53.013 C 141.082 53 141.575 53.013 142.08 53.026 C 142.547 51.839 143.343 50.817 144.391 50.111 C 145.439 49.391 146.689 49 147.952 49 C 151.539 49 155.125 49.076 158.711 49.227 C 161.818 49.366 164.925 49.606 168.006 49.934 C 170.721 50.211 173.411 50.603 176.101 51.095 C 178.488 51.537 180.849 52.092 183.185 52.748 C 187.328 53.909 191.331 55.486 195.145 57.455 C 198.213 59.07 201.181 60.875 204.035 62.856 C 212.054 64.56 219.644 67.891 226.312 72.649 C 231.641 76.448 236.377 81.003 240.367 86.177 C 240.493 86.101 240.632 86.026 240.771 85.95 C 242.097 85.193 243.499 84.537 244.951 84.007 C 246.277 83.489 247.679 83.199 249.106 83.149 C 251.202 83.035 253.261 83.729 254.852 85.079 C 256.569 86.606 257.504 88.827 257.416 91.124 C 257.365 92.55 256.999 93.938 256.342 95.213 C 255.799 96.285 255.13 97.282 254.347 98.178 C 252.983 99.731 251.354 101.03 249.523 102.015 C 253.374 111.202 255.344 121.07 255.307 131.04 C 255.307 137.35 254.524 143.634 252.983 149.755 C 251.922 153.919 250.483 157.995 248.702 161.92 C 249.649 163.081 250.495 164.305 251.253 165.592 C 251.632 166.223 252.036 166.841 252.465 167.447 C 252.819 167.927 253.223 168.368 253.665 168.76 C 254.233 169.264 254.865 169.693 255.534 170.059 C 256.658 170.64 257.845 171.107 259.057 171.46 C 260.939 172.028 262.858 172.508 264.791 172.886 C 266.028 173.126 267.278 173.277 268.541 173.34 C 269.337 173.391 270.145 173.378 270.953 173.315 C 271.446 173.277 271.938 173.189 272.431 173.075 C 272.772 172.987 273.113 172.861 273.428 172.722 C 273.631 172.634 273.807 172.533 273.984 172.407 C 275.209 171.523 276.699 171.107 278.215 171.233 C 279.717 171.359 281.119 172.015 282.18 173.088 C 283.241 174.161 283.885 175.587 283.986 177.088 C 284.087 178.603 283.645 180.092 282.736 181.303 C 281.624 182.78 280.387 184.181 279.035 185.468 C 277.709 186.742 276.27 187.891 274.742 188.926 C 273.163 189.986 271.496 190.919 269.766 191.715 C 267.922 192.547 266.016 193.241 264.058 193.797 C 262.72 194.163 261.356 194.415 259.967 194.567 C 258.552 194.731 257.125 194.806 255.698 194.794 C 253.577 194.781 251.455 194.642 249.346 194.39 C 248.045 195.185 246.694 195.917 245.305 196.56 C 242.969 197.658 240.544 198.554 238.056 199.248 C 236.478 199.677 234.861 199.993 233.232 200.157 C 231.54 200.346 229.822 200.435 228.118 200.435 C 224.708 200.422 221.286 200.132 217.914 199.577 C 215.098 199.122 212.307 198.516 209.566 197.747 C 209.213 197.86 208.859 197.961 208.506 198.075 C 208.329 198.744 208.139 199.425 207.937 200.107 C 207.293 202.328 206.7 204.574 206.157 206.82 C 205.614 209.117 205.184 211.439 204.856 213.774 C 204.944 214.632 204.982 215.49 204.97 216.348 C 204.957 217.572 204.906 218.796 204.818 220.008 C 205.033 222.367 205.146 224.74 205.159 227.1 C 205.184 229.27 205.045 231.453 204.73 233.599 C 204.515 235.101 203.757 236.476 202.608 237.46 C 201.459 238.457 199.994 239 198.479 239 L 196.079 239 L 185.85 239 L 179.536 239 C 178.349 239 177.187 238.672 176.177 238.028 C 175.267 238.52 174.244 238.773 173.222 238.773 L 170.822 238.773 L 160.593 238.773 L 154.279 238.773 C 152.599 238.773 150.983 238.091 149.796 236.905 C 148.621 235.719 147.952 234.104 147.965 232.413 C 147.977 230.507 148.028 228.601 148.116 226.696 C 148.179 225.409 148.217 224.122 148.23 222.834 C 148.242 222.191 148.205 221.547 148.129 220.916 C 148.04 220.601 147.977 220.273 147.927 219.944 C 147.876 219.629 147.851 219.301 147.826 218.973 C 147.788 218.317 147.763 217.673 147.763 217.017 C 147.763 216.159 147.788 215.3 147.838 214.43 C 147.851 214.139 147.876 213.837 147.902 213.534 C 147.902 213.508 147.902 213.471 147.902 213.445 C 147.611 211.186 147.194 208.953 146.677 206.732 C 146.55 206.227 146.424 205.722 146.285 205.217 C 139.529 206.252 132.697 206.757 125.865 206.744 C 125.246 206.744 124.64 206.744 124.034 206.732 C 123.958 207.073 123.882 207.401 123.806 207.741 C 123.39 209.66 123.036 211.59 122.758 213.534 C 122.859 214.392 122.897 215.25 122.885 216.108 C 122.872 217.332 122.821 218.556 122.733 219.78 C 122.948 222.128 123.061 224.5 123.074 226.86 C 123.099 229.043 122.96 231.214 122.645 233.359 C 122.43 234.861 121.672 236.236 120.523 237.233 C 119.374 238.218 117.909 238.773 116.393 238.773 L 113.994 238.773 L 103.765 238.773 L 97.451 238.773 C 96.264 238.773 95.102 238.432 94.092 237.801 C 93.182 238.281 92.159 238.533 91.137 238.533 L 88.737 238.533 L 78.508 238.533 L 72.194 238.533 C 70.514 238.533 68.898 237.864 67.711 236.665 C 66.536 235.479 65.867 233.864 65.88 232.185 C 65.892 230.28 65.943 228.362 66.031 226.456 C 66.094 225.182 66.132 223.894 66.145 222.595 C 66.157 221.964 66.12 221.32 66.044 220.676 C 65.955 220.361 65.892 220.033 65.842 219.717 C 65.791 219.389 65.766 219.061 65.741 218.733 C 65.703 218.089 65.678 217.433 65.678 216.777 C 65.678 215.919 65.703 215.061 65.753 214.203 C 65.766 213.9 65.791 213.597 65.816 213.307 C 65.816 213.269 65.816 213.243 65.816 213.206 C 65.488 210.606 64.983 208.044 64.339 205.508 C 63.708 203.059 62.899 200.662 61.914 198.34 C 60.955 196.043 59.843 193.822 58.606 191.664 C 57.28 189.342 55.853 187.058 54.362 184.837 C 51.104 182.376 48.048 179.688 45.207 176.773 C 41.873 173.366 38.918 169.618 36.38 165.592 C 35.647 164.431 34.953 163.245 34.308 162.021 C 34.182 162.513 34.043 162.98 33.866 163.447 C 33.336 164.81 32.616 166.084 31.707 167.22 C 30.192 169.1 28.348 170.678 26.264 171.877 C 24.648 172.823 22.943 173.618 21.175 174.224 C 20.518 174.451 19.849 174.653 19.167 174.817 C 18.573 174.981 17.955 175.095 17.323 175.158 C 16.894 175.221 16.452 175.296 16.022 175.397 C 15.77 175.461 15.517 175.536 15.265 175.637 C 15.101 175.7 14.936 175.776 14.785 175.877 C 13.838 176.811 12.613 177.442 11.299 177.644 C 9.973 177.846 8.622 177.631 7.435 177.025 C 6.248 176.42 5.276 175.448 4.682 174.249 C 4.076 173.063 3.861 171.713 4.089 170.387 C 4.329 168.861 4.859 167.371 5.629 166.021 C 6.223 164.961 6.892 163.939 7.65 162.992 C 8.142 162.336 8.673 161.705 9.216 161.099 C 9.355 160.595 9.531 160.103 9.759 159.636 Z " fill="rgb(0,0,0)"/></clipPath><g clip-path="url(#_clipPath_2FfwfXOpSKNzCYQknuMCaFY1yleLU1Mp)"><g><path d=" M 192.164 232.693 L 192.164 226.384 L 190.901 232.693 L 179.536 232.693 C 179.536 227.3 180.126 222.689 179.536 219.601 C 179.195 219.212 179.363 214.067 179.536 213.764 C 177.89 200.143 173.504 191.641 166.907 181.742 L 204.793 181.742 C 204.793 193.19 200.296 199.753 198.479 213.764 C 198.779 215.411 198.631 217.994 198.479 220.074 C 198.968 225.243 198.981 229.462 198.479 232.693 L 192.164 232.693 Z " fill="rgb(79,45,45)"/><clipPath id="_clipPath_AsygSyO2QZr6ni5lPGk6TNJRdBXShZV1"><path d=" M 192.164 232.693 L 192.164 226.384 L 190.901 232.693 L 179.536 232.693 C 179.536 227.3 180.126 222.689 179.536 219.601 C 179.195 219.212 179.363 214.067 179.536 213.764 C 177.89 200.143 173.504 191.641 166.907 181.742 L 204.793 181.742 C 204.793 193.19 200.296 199.753 198.479 213.764 C 198.779 215.411 198.631 217.994 198.479 220.074 C 198.968 225.243 198.981 229.462 198.479 232.693 L 192.164 232.693 Z " fill="rgb(79,45,45)"/></clipPath><g clip-path="url(#_clipPath_AsygSyO2QZr6ni5lPGk6TNJRdBXShZV1)"><path d=" M 179.536 232.693 C 179.536 227.3 180.126 222.689 179.536 219.601 C 179.342 219.38 196.071 216.446 192.164 220.074 C 196.239 220.074 197.255 216.15 198.479 220.074 C 198.968 225.243 198.981 229.462 198.479 232.693 L 179.536 232.693 Z " fill="rgb(59,59,59)"/></g><path d=" M 110.079 232.457 L 110.079 226.147 L 108.816 232.457 L 97.451 232.457 C 97.451 227.064 98.041 222.452 97.451 219.364 C 97.11 218.975 97.278 213.83 97.451 213.527 C 95.805 199.906 91.419 191.404 84.822 181.505 L 122.708 181.505 C 122.708 192.953 118.211 199.517 116.393 213.527 C 116.694 215.174 116.546 217.757 116.393 219.837 C 116.883 225.006 116.896 229.225 116.393 232.457 L 110.079 232.457 Z " fill="rgb(79,45,45)"/><clipPath id="_clipPath_x3AT8vXLgVZbTMgjhySTvTzRLL9SLyK8"><path d=" M 110.079 232.457 L 110.079 226.147 L 108.816 232.457 L 97.451 232.457 C 97.451 227.064 98.041 222.452 97.451 219.364 C 97.11 218.975 97.278 213.83 97.451 213.527 C 95.805 199.906 91.419 191.404 84.822 181.505 L 122.708 181.505 C 122.708 192.953 118.211 199.517 116.393 213.527 C 116.694 215.174 116.546 217.757 116.393 219.837 C 116.883 225.006 116.896 229.225 116.393 232.457 L 110.079 232.457 Z " fill="rgb(79,45,45)"/></clipPath><g clip-path="url(#_clipPath_x3AT8vXLgVZbTMgjhySTvTzRLL9SLyK8)"><path d=" M 97.451 232.457 C 97.451 227.064 98.041 222.452 97.451 219.364 C 97.257 219.143 113.986 216.209 110.079 219.837 C 114.154 219.837 115.17 215.913 116.393 219.837 C 116.883 225.006 116.896 229.225 116.393 232.457 L 97.451 232.457 Z " fill="rgb(59,59,59)"/></g><g><path d=" M 262.372 187.714 Q 272.085 184.984 277.681 177.515 Q 271.685 181.85 257.269 177.515 C 242.854 173.181 248.476 164.558 236.858 162.217 C 226.365 160.104 221.393 169.107 226.652 177.515 C 231.755 185.674 252.66 190.444 262.372 187.714 Z " fill="rgb(162,139,139)"/><path d=" M 201.477 68.783 C 228.419 73.715 248.992 99.724 248.992 131.027 C 248.992 165.852 223.529 194.125 192.164 194.125 C 185.893 194.125 179.858 192.995 174.215 190.907 C 160.186 196.947 143.612 200.435 125.865 200.435 C 75.334 200.435 34.308 172.161 34.308 137.337 C 34.308 102.512 75.334 74.239 125.865 74.239 C 127.203 74.239 128.535 74.259 129.86 74.298 Q 121.266 70.66 110.079 67.929 C 119.866 64.774 137.388 63.67 147.965 74.239 C 147.018 63.828 126.496 61.62 122.708 61.62 C 141.877 56.86 158.699 59.727 166.907 67.929 C 166.907 62.566 156.583 57.101 147.965 55.31 C 178.144 55.31 189.311 60.18 201.477 68.783 Z " fill-rule="evenodd" fill="rgb(94,64,64)"/><path d=" M 199.264 92.64 C 190.902 89.122 187.951 78.058 201.507 85.609 Q 215.063 93.16 223.735 108.943 Q 207.625 96.158 199.264 92.64 Z " fill="rgb(79,45,45)"/><ellipse vector-effect="non-scaling-stroke" cx="212.68553568877212" cy="115.25265782246058" rx="4.735674235904725" ry="9.464665403208642" fill="rgb(0,0,0)"/><clipPath id="_clipPath_etsfkkAwk1JXw3GT64OEOsgDeKqqicQB"><ellipse vector-effect="non-scaling-stroke" cx="212.68553568877212" cy="115.25265782246058" rx="4.735674235904725" ry="9.464665403208642" fill="rgb(0,0,0)"/></clipPath><g clip-path="url(#_clipPath_etsfkkAwk1JXw3GT64OEOsgDeKqqicQB)"><ellipse vector-effect="non-scaling-stroke" cx="213.86945424774825" cy="115.25265782246058" rx="3.5517556769285363" ry="7.098499052406481" fill="rgb(38,38,38)"/></g><ellipse vector-effect="non-scaling-stroke" cx="234.78534878966087" cy="115.25265782246058" rx="4.735674235904725" ry="9.464665403208684" fill="rgb(0,0,0)"/><clipPath id="_clipPath_35lHEcfgH4qCLSSw9lBPhdBtgKWLOm55"><ellipse vector-effect="non-scaling-stroke" cx="234.78534878966087" cy="115.25265782246058" rx="4.735674235904725" ry="9.464665403208684" fill="rgb(0,0,0)"/></clipPath><g clip-path="url(#_clipPath_35lHEcfgH4qCLSSw9lBPhdBtgKWLOm55)"><ellipse vector-effect="non-scaling-stroke" cx="235.96926734863712" cy="115.25265782246069" rx="3.5517556769285363" ry="7.098499052406524" fill="rgb(38,38,38)"/></g><g><path d=" M 236.364 193.169 Q 248.382 189.791 255.307 180.55 Q 247.887 185.913 230.05 180.55 C 212.212 175.187 219.169 164.517 204.793 161.621 C 191.81 159.005 185.657 170.145 192.164 180.55 C 198.479 190.645 224.346 196.547 236.364 193.169 Z " fill="rgb(195,163,163)"/><clipPath id="_clipPath_EnZIqfdBPokfJYs54cqBjcexTsa3gKx7"><path d=" M 236.364 193.169 Q 248.382 189.791 255.307 180.55 Q 247.887 185.913 230.05 180.55 C 212.212 175.187 219.169 164.517 204.793 161.621 C 191.81 159.005 185.657 170.145 192.164 180.55 C 198.479 190.645 224.346 196.547 236.364 193.169 Z " fill="rgb(195,163,163)"/></clipPath><g clip-path="url(#_clipPath_EnZIqfdBPokfJYs54cqBjcexTsa3gKx7)"><path d=" M 210.12 170.962 L 210.12 170.962 L 210.12 170.962 Q 210.12 172.786 209.646 174.197 L 209.646 174.197 L 209.646 174.197 Q 209.171 175.608 208.345 176.656 L 208.345 176.656 L 208.345 176.656 Q 207.518 177.703 206.39 178.418 L 206.39 178.418 L 206.39 178.418 Q 205.261 179.133 203.948 179.576 L 203.948 179.576 L 203.948 179.576 Q 202.635 180.02 201.198 180.211 L 201.198 180.211 L 201.198 180.211 Q 199.761 180.402 198.306 180.402 L 198.306 180.402 L 198.306 180.402 Q 196.814 180.402 194.76 180.31 L 194.76 180.31 L 194.76 180.31 Q 192.707 180.217 190.166 179.971 L 190.166 179.971 L 191.104 175.448 L 191.104 175.448 Q 191.992 175.682 192.966 175.848 L 192.966 175.848 L 192.966 175.848 Q 193.94 176.015 194.89 176.113 L 194.89 176.113 L 194.113 166.575 L 194.113 166.575 Q 193.348 166.723 192.559 166.895 L 192.559 166.895 L 192.559 166.895 Q 191.77 167.068 190.931 167.277 L 190.931 167.277 L 190.166 163.334 L 190.166 163.334 Q 191.56 162.915 192.917 162.656 L 192.917 162.656 L 192.917 162.656 Q 194.273 162.397 195.482 162.268 L 195.482 162.268 L 195.482 162.268 Q 196.69 162.138 197.695 162.095 L 197.695 162.095 L 197.695 162.095 Q 198.7 162.052 199.391 162.052 L 199.391 162.052 L 199.391 162.052 Q 201.722 162.052 203.689 162.539 L 203.689 162.539 L 203.689 162.539 Q 205.656 163.025 207.087 164.091 L 207.087 164.091 L 207.087 164.091 Q 208.517 165.157 209.319 166.852 L 209.319 166.852 L 209.319 166.852 Q 210.12 168.546 210.12 170.962 Z  M 200.143 176.409 L 200.143 176.409 L 200.143 176.409 Q 202.129 176.409 203.627 175.928 L 203.627 175.928 L 203.627 175.928 Q 205.126 175.448 206.131 174.69 L 206.131 174.69 L 206.131 174.69 Q 207.136 173.932 207.642 173.002 L 207.642 173.002 L 207.642 173.002 Q 208.147 172.071 208.147 171.159 L 208.147 171.159 L 208.147 171.159 Q 208.147 170.259 207.845 169.341 L 207.845 169.341 L 207.845 169.341 Q 207.543 168.423 206.828 167.671 L 206.828 167.671 L 206.828 167.671 Q 206.112 166.92 204.935 166.414 L 204.935 166.414 L 204.935 166.414 Q 203.757 165.909 202.018 165.835 L 202.018 165.835 L 202.018 165.835 Q 201.512 165.811 200.846 165.835 L 200.846 165.835 L 200.846 165.835 Q 200.279 165.86 199.477 165.909 L 199.477 165.909 L 199.477 165.909 Q 198.676 165.958 197.677 166.069 L 197.677 166.069 L 197.221 176.31 L 197.221 176.31 Q 197.85 176.36 198.386 176.378 L 198.386 176.378 L 198.386 176.378 Q 198.922 176.397 199.317 176.409 L 199.317 176.409 L 199.317 176.409 Q 199.773 176.421 200.143 176.409 Z " fill="rgb(255,255,255)"/></g><path d=" M 123.596 175.226 L 123.596 175.226 L 123.596 175.226 Q 123.596 176.397 123.072 177.37 L 123.072 177.37 L 123.072 177.37 Q 122.547 178.344 121.518 179.046 L 121.518 179.046 L 121.518 179.046 Q 120.488 179.749 118.952 180.137 L 118.952 180.137 L 118.952 180.137 Q 117.417 180.525 115.382 180.525 L 115.382 180.525 L 115.382 180.525 Q 113.939 180.525 112.441 180.507 L 112.441 180.507 L 112.441 180.507 Q 110.943 180.488 109.456 180.402 L 109.456 180.402 L 109.456 180.402 Q 107.97 180.316 106.534 180.137 L 106.534 180.137 L 106.534 180.137 Q 105.097 179.958 103.765 179.638 L 103.765 179.638 L 105.06 175.251 L 105.06 175.251 Q 105.664 175.485 106.269 175.657 L 106.269 175.657 L 106.269 175.657 Q 106.873 175.83 107.477 175.978 L 107.477 175.978 L 106.873 166.414 L 104.271 166.944 L 103.765 163.186 L 103.765 163.186 Q 104.665 162.915 105.584 162.711 L 105.584 162.711 L 105.584 162.711 Q 106.503 162.508 107.391 162.36 L 107.391 162.36 L 107.391 162.36 Q 108.279 162.212 109.111 162.107 L 109.111 162.107 L 109.111 162.107 Q 109.944 162.003 110.671 161.929 L 110.671 161.929 L 110.671 161.929 Q 112.373 161.768 113.952 161.744 L 113.952 161.744 L 113.952 161.744 Q 115.95 161.744 117.682 162.076 L 117.682 162.076 L 117.682 162.076 Q 119.415 162.409 120.679 163.069 L 120.679 163.069 L 120.679 163.069 Q 121.943 163.728 122.634 164.701 L 122.634 164.701 L 122.634 164.701 Q 123.324 165.675 123.238 166.944 L 123.238 166.944 L 123.238 166.944 Q 123.164 168.054 122.48 169.027 L 122.48 169.027 L 122.48 169.027 Q 121.795 170.001 120.488 170.752 L 120.488 170.752 L 120.488 170.752 Q 121.068 170.999 121.511 171.325 L 121.511 171.325 L 121.511 171.325 Q 121.955 171.652 122.282 172.016 L 122.282 172.016 L 122.282 172.016 Q 122.609 172.379 122.831 172.755 L 122.831 172.755 L 122.831 172.755 Q 123.053 173.131 123.201 173.488 L 123.201 173.488 L 123.201 173.488 Q 123.534 174.326 123.596 175.226 Z  M 112.151 172.478 L 112.151 172.478 L 112.151 172.478 Q 111.682 172.478 111.195 172.472 L 111.195 172.472 L 111.195 172.472 Q 110.708 172.465 110.19 172.428 L 110.19 172.428 L 109.981 176.532 L 109.981 176.532 Q 111.091 176.729 112.028 176.822 L 112.028 176.822 L 112.028 176.822 Q 112.965 176.914 113.668 176.964 L 113.668 176.964 L 113.668 176.964 Q 114.482 177.013 115.16 177.013 L 115.16 177.013 L 115.16 177.013 Q 116.517 177.013 117.534 176.822 L 117.534 176.822 L 117.534 176.822 Q 118.552 176.631 119.211 176.273 L 119.211 176.273 L 119.211 176.273 Q 119.871 175.916 120.143 175.399 L 120.143 175.399 L 120.143 175.399 Q 120.414 174.881 120.291 174.215 L 120.291 174.215 L 120.291 174.215 Q 120.18 173.612 119.705 173.248 L 119.705 173.248 L 119.705 173.248 Q 119.23 172.884 118.496 172.687 L 118.496 172.687 L 118.496 172.687 Q 117.762 172.49 116.819 172.428 L 116.819 172.428 L 116.819 172.428 Q 115.876 172.367 114.827 172.355 L 114.827 172.355 L 114.827 172.355 Q 114.198 172.428 113.539 172.453 L 113.539 172.453 L 113.539 172.453 Q 112.879 172.478 112.151 172.478 Z  M 111.3 170.814 L 111.3 170.814 L 111.3 170.814 Q 111.88 170.814 112.7 170.789 L 112.7 170.789 L 112.7 170.789 Q 113.52 170.765 114.396 170.648 L 114.396 170.648 L 114.396 170.648 Q 115.271 170.531 116.11 170.309 L 116.11 170.309 L 116.11 170.309 Q 116.948 170.087 117.571 169.693 L 117.571 169.693 L 117.571 169.693 Q 118.194 169.298 118.521 168.713 L 118.521 168.713 L 118.521 168.713 Q 118.848 168.127 118.7 167.277 L 118.7 167.277 L 118.7 167.277 Q 118.638 166.932 118.367 166.569 L 118.367 166.569 L 118.367 166.569 Q 118.095 166.205 117.584 165.909 L 117.584 165.909 L 117.584 165.909 Q 117.072 165.613 116.301 165.422 L 116.301 165.422 L 116.301 165.422 Q 115.53 165.231 114.482 165.231 L 114.482 165.231 L 114.482 165.231 Q 113.421 165.231 112.496 165.336 L 112.496 165.336 L 112.496 165.336 Q 111.571 165.441 110.511 165.638 L 110.511 165.638 L 110.264 170.789 L 110.264 170.789 Q 110.511 170.814 110.77 170.814 L 110.77 170.814 L 110.77 170.814 Q 111.029 170.814 111.3 170.814 Z  M 144.253 171.036 L 144.253 171.036 L 144.253 171.036 Q 144.253 172.983 143.698 174.69 L 143.698 174.69 L 143.698 174.69 Q 143.143 176.397 141.971 177.672 L 141.971 177.672 L 141.971 177.672 Q 140.799 178.948 138.962 179.687 L 138.962 179.687 L 138.962 179.687 Q 137.124 180.427 134.559 180.427 L 134.559 180.427 L 134.559 180.427 Q 131.957 180.427 130.113 179.687 L 130.113 179.687 L 130.113 179.687 Q 128.27 178.948 127.104 177.672 L 127.104 177.672 L 127.104 177.672 Q 125.939 176.397 125.396 174.69 L 125.396 174.69 L 125.396 174.69 Q 124.854 172.983 124.854 171.036 L 124.854 171.036 L 124.854 171.036 Q 124.854 169.089 125.446 167.37 L 125.446 167.37 L 125.446 167.37 Q 126.037 165.65 127.24 164.375 L 127.24 164.375 L 127.24 164.375 Q 128.442 163.099 130.268 162.36 L 130.268 162.36 L 130.268 162.36 Q 132.093 161.621 134.559 161.621 L 134.559 161.621 L 134.559 161.621 Q 136.483 161.621 137.957 161.959 L 137.957 161.959 L 137.957 161.959 Q 139.431 162.298 140.504 162.908 L 140.504 162.908 L 140.504 162.908 Q 141.576 163.518 142.298 164.375 L 142.298 164.375 L 142.298 164.375 Q 143.019 165.231 143.457 166.279 L 143.457 166.279 L 143.457 166.279 Q 143.895 167.326 144.074 168.534 L 144.074 168.534 L 144.074 168.534 Q 144.253 169.742 144.253 171.036 Z  M 142.008 171.036 L 142.008 171.036 L 142.008 171.036 Q 142.008 170.001 141.681 169.083 L 141.681 169.083 L 141.681 169.083 Q 141.354 168.164 140.51 167.48 L 140.51 167.48 L 140.51 167.48 Q 139.665 166.797 138.222 166.402 L 138.222 166.402 L 138.222 166.402 Q 136.779 166.008 134.559 166.008 L 134.559 166.008 L 134.559 166.008 Q 132.66 166.008 131.26 166.402 L 131.26 166.402 L 131.26 166.402 Q 129.861 166.797 128.936 167.48 L 128.936 167.48 L 128.936 167.48 Q 128.011 168.164 127.561 169.083 L 127.561 169.083 L 127.561 169.083 Q 127.11 170.001 127.11 171.036 L 127.11 171.036 L 127.11 171.036 Q 127.11 172.071 127.524 172.977 L 127.524 172.977 L 127.524 172.977 Q 127.937 173.883 128.831 174.567 L 128.831 174.567 L 128.831 174.567 Q 129.725 175.251 131.137 175.645 L 131.137 175.645 L 131.137 175.645 Q 132.549 176.039 134.559 176.039 L 134.559 176.039 L 134.559 176.039 Q 136.532 176.039 137.938 175.645 L 137.938 175.645 L 137.938 175.645 Q 139.344 175.251 140.251 174.567 L 140.251 174.567 L 140.251 174.567 Q 141.157 173.883 141.583 172.977 L 141.583 172.977 L 141.583 172.977 Q 142.008 172.071 142.008 171.036 Z  M 168.017 176.409 L 168.017 180.303 L 157.411 179.971 L 157.337 176.84 L 161.604 176.668 L 160.544 174.696 L 152.392 174.696 L 151.479 176.668 L 155.512 176.693 L 155.339 180.574 L 144.758 179.687 L 144.832 176.594 L 148.039 176.619 L 153.983 166.513 L 148.298 166.747 L 148.298 162.754 L 158.805 162.754 L 164.182 176.569 L 168.017 176.409 Z  M 156.153 166.538 L 153.169 173.008 L 159.631 173.008 L 156.153 166.538 Z  M 187.293 173.587 L 189.229 173.587 L 188.304 179.638 L 182.94 179.638 L 178.549 172.576 L 178.549 172.576 Q 177.6 172.65 176.502 172.65 L 176.502 172.65 L 176.502 172.65 Q 176.083 172.65 175.651 172.65 L 175.651 172.65 L 175.651 172.65 Q 175.219 172.65 174.763 172.626 L 174.763 172.626 L 174.553 176.89 L 178.475 177.124 L 178.697 179.638 L 168.646 180.451 L 168.646 176.532 L 172.161 176.742 L 171.483 166.267 L 168.881 166.797 L 168.375 163.062 L 168.375 163.062 Q 169.275 162.791 170.194 162.588 L 170.194 162.588 L 170.194 162.588 Q 171.113 162.385 172.001 162.237 L 172.001 162.237 L 172.001 162.237 Q 172.889 162.089 173.715 161.984 L 173.715 161.984 L 173.715 161.984 Q 174.541 161.879 175.269 161.805 L 175.269 161.805 L 175.269 161.805 Q 176.971 161.645 178.549 161.621 L 178.549 161.621 L 178.549 161.621 Q 180.547 161.621 182.28 161.953 L 182.28 161.953 L 182.28 161.953 Q 184.013 162.286 185.277 162.939 L 185.277 162.939 L 185.277 162.939 Q 186.541 163.592 187.237 164.56 L 187.237 164.56 L 187.237 164.56 Q 187.934 165.527 187.848 166.797 L 187.848 166.797 L 187.848 166.797 Q 187.786 167.684 187.324 168.534 L 187.324 168.534 L 187.324 168.534 Q 186.861 169.385 185.98 170.112 L 185.98 170.112 L 185.98 170.112 Q 185.098 170.839 183.803 171.406 L 183.803 171.406 L 183.803 171.406 Q 182.508 171.972 180.769 172.293 L 180.769 172.293 L 185.27 176.619 L 187.268 176.113 L 187.293 173.587 Z  M 175.898 171.011 L 175.898 171.011 L 175.898 171.011 Q 176.527 171.011 177.365 170.98 L 177.365 170.98 L 177.365 170.98 Q 178.204 170.95 179.08 170.82 L 179.08 170.82 L 179.08 170.82 Q 179.955 170.691 180.781 170.444 L 180.781 170.444 L 180.781 170.444 Q 181.608 170.198 182.218 169.767 L 182.218 169.767 L 182.218 169.767 Q 182.829 169.335 183.143 168.701 L 183.143 168.701 L 183.143 168.701 Q 183.458 168.066 183.297 167.154 L 183.297 167.154 L 183.297 167.154 Q 183.236 166.809 182.964 166.445 L 182.964 166.445 L 182.964 166.445 Q 182.693 166.082 182.175 165.786 L 182.175 165.786 L 182.175 165.786 Q 181.657 165.49 180.886 165.299 L 180.886 165.299 L 180.886 165.299 Q 180.115 165.108 179.055 165.108 L 179.055 165.108 L 179.055 165.108 Q 178.537 165.108 178.05 165.133 L 178.05 165.133 L 178.05 165.133 Q 177.563 165.157 177.088 165.201 L 177.088 165.201 L 177.088 165.201 Q 176.613 165.244 176.132 165.318 L 176.132 165.318 L 176.132 165.318 Q 175.651 165.392 175.121 165.478 L 175.121 165.478 L 174.837 170.987 L 174.837 170.987 Q 175.108 171.011 175.367 171.011 L 175.367 171.011 L 175.367 171.011 Q 175.626 171.011 175.898 171.011 Z " fill="rgb(255,199,162)"/></g><path d=" M 215.723 168.886 C 215.723 161.921 221.381 149.956 228.351 149.956 C 235.321 149.956 240.98 161.921 240.98 168.886 C 240.98 175.851 235.321 175.196 228.351 175.196 C 221.381 175.196 215.723 175.851 215.723 168.886 Z " fill="rgb(255,199,162)"/><clipPath id="_clipPath_M0W4xpfH6EqbE0yeC5fuUp8WGWfcIRLV"><path d=" M 215.723 168.886 C 215.723 161.921 221.381 149.956 228.351 149.956 C 235.321 149.956 240.98 161.921 240.98 168.886 C 240.98 175.851 235.321 175.196 228.351 175.196 C 221.381 175.196 215.723 175.851 215.723 168.886 Z " fill="rgb(255,199,162)"/></clipPath><g clip-path="url(#_clipPath_M0W4xpfH6EqbE0yeC5fuUp8WGWfcIRLV)"><ellipse vector-effect="non-scaling-stroke" cx="223.61555041788938" cy="165.31646488868532" rx="1.5785580786349556" ry="6.309776935472428" fill="rgb(38,38,38)"/><ellipse vector-effect="non-scaling-stroke" cx="234.66545696833373" cy="165.31646488868532" rx="1.5785580786349556" ry="6.309776935472428" fill="rgb(38,38,38)"/></g><path d=" M 245.613 96.889 C 252.085 94.166 254.37 85.602 243.877 91.447 Q 233.384 97.292 226.67 109.509 Q 239.141 99.612 245.613 96.889 Z " fill="rgb(79,45,45)"/></g><g><path d=" M 64.408 127.419 C 68.978 118.506 60.214 117.297 64.408 95.87 C 99.978 95.029 132.933 97.144 163.213 102.18 Q 168.041 126.806 163.165 140.038 Q 159.707 149.424 156.851 158.968 C 118.955 159.649 86.04 151.249 58.046 146.348 C 58.262 145.248 60.437 135.164 64.408 127.419 Z " fill="rgb(66,31,31)"/><path d=" M 50.773 132.946 C 51.742 131.053 52.591 129.148 53.303 127.217 C 54.073 125.109 54.726 122.989 55.259 120.857 C 55.951 118.169 56.563 115.481 57.097 112.78 C 57.848 109.183 58.539 105.587 59.231 101.99 C 59.784 99.138 60.338 96.286 60.911 93.434 C 67.076 93.258 73.261 93.169 79.447 93.169 C 94.089 93.144 108.713 93.699 123.257 94.81 C 138.216 95.958 153.036 97.788 167.58 100.312 C 166.711 104.678 165.782 109.032 164.794 113.398 C 164.142 116.301 163.45 119.203 162.719 122.093 C 161.79 125.766 160.783 129.438 159.696 133.085 C 158.945 135.609 158.095 138.12 157.186 140.619 C 156.653 142.07 156.02 143.496 155.289 144.909 C 154.716 146.02 154.044 147.118 153.293 148.178 C 152.305 149.553 151.12 150.853 149.736 152.077 C 148.393 153.276 146.713 154.324 144.796 155.157 C 139.777 155.257 134.738 155.308 129.718 155.308 C 114.404 155.346 99.089 154.803 83.873 153.68 C 69.408 152.633 55.081 150.841 41.051 148.329 C 40.28 146.966 40.557 145.452 41.822 144.241 C 42.217 143.824 42.632 143.408 43.047 142.991 C 44.351 141.717 45.576 140.417 46.703 139.079 C 48.323 137.111 49.687 135.054 50.773 132.946 Z " fill="rgb(0,0,0)"/><path d=" M 54.528 133.729 C 59.098 124.816 60.214 117.297 64.408 95.87 C 99.978 95.029 132.933 97.144 163.213 102.18 Q 158.208 126.806 153.333 140.038 Q 149.875 149.424 143.452 152.658 C 105.557 153.34 72.641 151.249 44.648 146.348 C 44.863 145.248 50.557 141.473 54.528 133.729 Z " fill="rgb(255,255,255)"/><g clip-path="url(#_clipPath_1Ye10qdo0qkI9DTCanT0qPZRosQTrdQW)"><text transform="matrix(1.203,0.383,-0.383,1.203,60.397,117.242)" style="font-family:'Peralta';font-weight:400;font-size:18px;font-style:normal;fill:#000000;stroke:none;">STICK</text></g><defs><clipPath id="_clipPath_1Ye10qdo0qkI9DTCanT0qPZRosQTrdQW"><rect x="0" y="0" width="72.498" height="20.739" transform="matrix(1.203,0.383,-0.383,1.203,67.15,96.047)"/></clipPath></defs></g><path d=" M 27.994 156.266 C 27.301 154.119 26.81 156.163 22.943 156.266 C 19.075 156.37 17.147 158.544 15.366 162.576 C 15.726 161.516 17.191 160.629 17.891 161.314 C 18.434 162.315 17.102 162.226 15.366 163.838 C 14.446 164.692 10.693 168.505 10.314 171.41 Q 12.238 169.458 16.629 168.886 C 18.297 168.817 30.821 165.021 27.994 156.266 Z " fill="rgb(79,45,45)"/><path d=" M 166.907 232.457 L 166.907 226.147 L 165.645 232.457 L 154.279 232.457 C 154.279 227.064 154.869 222.452 154.279 219.364 C 153.938 218.975 154.107 213.83 154.279 213.527 C 152.633 199.906 148.247 191.404 141.65 181.505 L 179.536 181.505 C 179.536 192.953 175.039 199.517 173.222 213.527 C 173.522 215.174 173.374 217.757 173.222 219.837 C 173.711 225.006 173.724 229.225 173.222 232.457 L 166.907 232.457 Z " fill="rgb(94,64,64)"/><clipPath id="_clipPath_O1Szzez3g1sSYauU7q1aNnqpuKBpS5Ku"><path d=" M 166.907 232.457 L 166.907 226.147 L 165.645 232.457 L 154.279 232.457 C 154.279 227.064 154.869 222.452 154.279 219.364 C 153.938 218.975 154.107 213.83 154.279 213.527 C 152.633 199.906 148.247 191.404 141.65 181.505 L 179.536 181.505 C 179.536 192.953 175.039 199.517 173.222 213.527 C 173.522 215.174 173.374 217.757 173.222 219.837 C 173.711 225.006 173.724 229.225 173.222 232.457 L 166.907 232.457 Z " fill="rgb(94,64,64)"/></clipPath><g clip-path="url(#_clipPath_O1Szzez3g1sSYauU7q1aNnqpuKBpS5Ku)"><path d=" M 154.279 232.457 C 154.279 227.064 154.869 222.452 154.279 219.364 C 154.085 219.143 170.814 216.209 166.907 219.837 C 170.982 219.837 171.998 215.913 173.222 219.837 C 173.711 225.006 173.724 229.225 173.222 232.457 L 154.279 232.457 Z " fill="rgb(59,59,59)"/></g><path d=" M 84.822 232.22 L 84.822 225.91 L 83.559 232.22 L 72.194 232.22 C 72.194 226.827 72.784 222.216 72.194 219.127 C 71.853 218.739 72.022 213.594 72.194 213.291 C 70.548 199.669 66.162 191.167 59.565 181.269 L 97.451 181.269 C 97.451 192.717 92.954 199.28 91.137 213.291 C 91.437 214.937 91.289 217.521 91.137 219.601 C 91.626 224.77 91.639 228.989 91.137 232.22 L 84.822 232.22 Z " fill="rgb(94,64,64)"/><clipPath id="_clipPath_DWmz0xNmGovzDXS9GM1Ey4uIRbgpNayv"><path d=" M 84.822 232.22 L 84.822 225.91 L 83.559 232.22 L 72.194 232.22 C 72.194 226.827 72.784 222.216 72.194 219.127 C 71.853 218.739 72.022 213.594 72.194 213.291 C 70.548 199.669 66.162 191.167 59.565 181.269 L 97.451 181.269 C 97.451 192.717 92.954 199.28 91.137 213.291 C 91.437 214.937 91.289 217.521 91.137 219.601 C 91.626 224.77 91.639 228.989 91.137 232.22 L 84.822 232.22 Z " fill="rgb(94,64,64)"/></clipPath><g clip-path="url(#_clipPath_DWmz0xNmGovzDXS9GM1Ey4uIRbgpNayv)"><path d=" M 72.194 232.22 C 72.194 226.827 72.784 222.216 72.194 219.127 C 72 218.907 88.729 215.972 84.822 219.601 C 88.897 219.601 89.913 215.677 91.137 219.601 C 91.626 224.77 91.639 228.989 91.137 232.22 L 72.194 232.22 Z " fill="rgb(59,59,59)"/></g><path d=" M 46.937 118.408 C 25.91 122.206 34.536 154.428 21.68 162.576 C 33.296 158.251 33.131 128.894 40.623 131.027 Q 45.911 119.906 46.937 118.408 Z " fill="rgb(94,64,64)"/></g><clipPath id="_clipPath_6W2YR0pmXo9OoexWD3rPfa3IosPS6wS5"><path d=" M 187.191 91.906 C 187.724 92.705 188.785 94.28 187.113 93.168 C 187.808 94.213 187.929 96.11 187.191 96.954 C 187.375 95.537 186.098 93.867 183.324 91.906 C 184.903 93.694 184.495 94.128 182.062 95.692 C 180.907 95.533 179.499 97.145 177.839 96.916 C 175.527 96.598 173.988 94.884 170.696 94.43 C 172.82 89.012 172.412 84.919 171.959 80.549 C 174.248 79.247 183.088 85.242 180.799 83.149 C 183.757 84.868 187.778 88.24 188.376 89.383 C 188.652 88.574 187.299 87.087 187.191 86.859 C 189.396 88.537 191.515 91.672 193.427 93.168 C 191.612 92.537 189.546 92.129 187.191 91.906 Z " fill="rgb(255,255,255)"/></clipPath><g clip-path="url(#_clipPath_6W2YR0pmXo9OoexWD3rPfa3IosPS6wS5)"><path d=" M 187.191 96.954 C 187.375 95.537 186.098 93.867 183.324 91.906 C 183.891 92.548 183.911 90.769 182.062 89.383 C 184.627 88.298 173.853 79.662 171.959 80.549 C 173.823 76.77 179.419 79.123 187.113 86.859 C 189.492 87.789 191.804 91.012 193.427 93.168 C 199.199 100.469 196.067 103.439 187.191 96.954 Z " fill="rgb(79,45,45)"/><path d=" M 182.062 94.43 C 180.907 94.271 179.499 95.921 177.839 95.692 C 175.847 95.418 174.523 94.826 172.091 94.43 C 172.685 94.487 173.411 85.053 171.959 80.549 C 177.878 80.391 184.495 92.866 182.062 94.43 Z " fill="rgb(255,199,162)"/><clipPath id="_clipPath_tIkz0xU9SsWNc3m0R5eIptYJ9WQuxEsG"><path d=" M 182.062 94.43 C 180.907 94.271 179.499 95.921 177.839 95.692 C 175.847 95.418 174.523 94.826 172.091 94.43 C 172.685 94.487 173.411 85.053 171.959 80.549 C 177.878 80.391 184.495 92.866 182.062 94.43 Z " fill="rgb(255,199,162)"/></clipPath><g clip-path="url(#_clipPath_tIkz0xU9SsWNc3m0R5eIptYJ9WQuxEsG)"><path d=" M 177.01 83.073 C 178.431 79.287 185.527 90.808 185.365 91.129 C 184.418 93.015 183.246 99.546 177.839 95.692 C 177.242 93.237 182.339 91.867 177.01 83.073 Z " fill="rgb(183,156,138)"/></g></g></g></g></svg>